<svg width="40" height="40" viewBox="0 0 40 40" fill="none" xmlns="http://www.w3.org/2000/svg">
<path d="M12.0413 7.69143C6.2192 7.65596 2.77803 11.1831 2.28967 14.5627C1.21334 22.7291 0.35373 29.9999 5.6156 32.265C7.27451 32.9791 16.5288 24.7545 23.0554 22.9495C23.8566 17.9684 23.8142 15.5043 23.3296 10.6728C23.3296 10.6728 23.0761 9.20401 21.956 8.95869C19.6438 8.45229 15.6422 7.68096 12.0412 7.69151L12.0413 7.69143ZM32.9737 8.49713C30.6034 8.49002 27.8281 8.77526 25.5232 9.23932C25.0008 9.34455 24.6907 10.4349 24.7485 10.7256C25.2016 15.3517 25.2565 17.5639 24.5614 22.4042C37.5286 16.9938 38.6558 13.3094 38.5091 11.7201C38.2773 9.20815 35.9197 8.50604 32.9737 8.49713ZM22.2389 24.5803C19.1641 25.7225 15.9926 27.7742 13.3579 29.6225C14.9272 30.087 17.7856 30.1411 19.1802 29.3571C20.6083 28.1198 21.8726 26.4358 22.2388 24.5803H22.2389Z" fill="#019F84"/>
</svg>
