<svg width="50" height="51" viewBox="0 0 50 51" fill="none" xmlns="http://www.w3.org/2000/svg">
<path d="M13.0706 32.675C1.75392 27.8067 6.21954 11.373 14.0758 8.6583C17.3352 7.53205 20.93 11.2689 20.9081 13.5883C20.8977 14.5913 20.3904 15.5699 19.8612 16.5888C19.1675 17.9275 18.4362 19.3354 18.7466 20.9642C19.2935 23.8329 19.906 28.6737 18.3279 30.9708C16.7498 33.269 15.1633 33.575 13.0706 32.675ZM35.7779 8.6583C43.6341 11.373 48.1008 27.8067 36.7831 32.675C34.6904 33.576 33.1039 33.269 31.5258 30.9708C29.9477 28.6737 30.5602 23.8329 31.107 20.9642C31.4175 19.3354 30.6862 17.9265 29.9925 16.5888C29.4633 15.5699 28.956 14.5913 28.9466 13.5883C28.9237 11.2689 32.5195 7.53205 35.7779 8.6583ZM29.8102 24.2037L29.8831 25.263H29.8966L29.8998 25.262L29.8737 25.2652C29.6428 25.3079 29.4239 25.4014 29.232 25.5393C28.93 25.7592 28.4862 26.2459 28.4862 27.4741V42.8442H26.4029V27.4741C26.4029 25.5977 27.1425 24.4492 28.0227 23.8085C28.476 23.4811 28.9958 23.2621 29.5435 23.1678C29.5989 23.1592 29.6544 23.1521 29.7102 23.1465L29.7268 23.1444H29.7373C29.7373 23.1434 29.7393 23.1434 29.8102 24.2037ZM20.0435 24.2037C19.9727 25.263 19.9716 25.263 19.9706 25.263H19.9581L19.955 25.262L19.98 25.2652C20.2112 25.3078 20.4305 25.4013 20.6227 25.5393C20.9248 25.7592 21.3685 26.2459 21.3685 27.4741V42.8442H23.4518V27.4741C23.4518 25.5977 22.7123 24.4492 21.831 23.8085C21.3777 23.4811 20.8579 23.2621 20.3102 23.1678C20.2548 23.1592 20.1992 23.1521 20.1435 23.1465L20.1279 23.1444H20.1164C20.1164 23.1434 20.1154 23.1434 20.0435 24.2037Z" fill="#019F84"/>
</svg>
