<svg width="40" height="41" viewBox="0 0 40 41" fill="none" xmlns="http://www.w3.org/2000/svg">
<path d="M20.8337 12.2427C20.8337 12.6305 20.5253 13.1892 19.572 13.7008C18.6578 14.1919 17.3378 14.5208 15.8337 14.5208C14.3295 14.5208 13.0095 14.1919 12.0953 13.7008C11.142 13.1892 10.8337 12.6305 10.8337 12.2427C10.8337 11.9045 11.062 11.4381 11.7803 10.9709L10.8878 9.52905C9.93949 10.1441 9.16699 11.0674 9.16699 12.2427C9.16699 13.5846 10.1645 14.5926 11.322 15.2144C12.5195 15.8567 14.117 16.2291 15.8337 16.2291C17.5503 16.2291 19.1478 15.8567 20.3453 15.2144C21.5037 14.5926 22.5003 13.5846 22.5003 12.2427C22.5003 11.0674 21.7278 10.1449 20.7803 9.52905L19.887 10.9709C20.6053 11.4381 20.8337 11.9036 20.8337 12.2427Z" fill="#019F84"/>
<path fill-rule="evenodd" clip-rule="evenodd" d="M5.00025 13.2396C5.00025 15.7816 6.56109 18.0503 9.00275 19.5382C5.27442 21.812 3.57692 25.959 5.21025 28.8589C6.86109 31.7904 11.2911 32.337 15.1044 30.0803C18.7994 27.8937 20.5594 23.8774 19.1628 20.9638C23.5169 19.9106 26.6669 16.851 26.6669 13.2396C26.6669 8.75777 21.8169 5.125 15.8336 5.125C9.85025 5.125 5.00025 8.75777 5.00025 13.2396ZM22.5111 17.5984C24.1578 16.3641 25.0003 14.8027 25.0003 13.2396C25.0003 11.6765 24.1586 10.115 22.5103 8.88077C20.8644 7.64821 18.5103 6.83333 15.8336 6.83333C13.1586 6.83333 10.8028 7.64821 9.15692 8.88077C7.50859 10.115 6.66692 11.6765 6.66692 13.2396C6.66692 14.8027 7.50942 16.3641 9.15692 17.5984C10.8028 18.831 13.1578 19.6458 15.8336 19.6458C18.5094 19.6458 20.8644 18.831 22.5103 17.5984M13.8044 21.2115C14.3994 21.2969 15.01 21.3439 15.6361 21.3525C15.8003 21.5113 15.9461 21.6958 16.0661 21.9094C16.6028 22.8618 16.4078 23.9679 15.9269 24.8733C15.4378 25.7933 14.5911 26.6526 13.5269 27.2821C12.4628 27.9116 11.3136 28.2336 10.2919 28.2071C9.28609 28.1815 8.25442 27.8023 7.71859 26.8499C7.24942 26.0179 7.34109 25.0613 7.68942 24.2395L9.21859 24.9203C9.00192 25.4294 9.04192 25.783 9.16192 25.9957C9.29775 26.2374 9.64859 26.4826 10.3336 26.4997C11.0011 26.5168 11.8503 26.3015 12.6936 25.8027C13.5369 25.3038 14.1436 24.6581 14.4628 24.0559C14.7903 23.4392 14.7594 23.0053 14.6228 22.7635C14.5028 22.55 14.2244 22.339 13.6861 22.2767L13.8044 21.2115Z" fill="#019F84"/>
<path d="M29.8633 21.1526C31.8592 21.701 33.8017 20.9015 34.2033 19.3674C34.6033 17.8333 33.3117 16.1446 31.315 15.5971C29.3192 15.0487 27.3767 15.8482 26.975 17.3823C26.575 18.9164 27.8667 20.6051 29.8633 21.1526Z" fill="#019F84"/>
<path fill-rule="evenodd" clip-rule="evenodd" d="M35.2049 31.1404C34.3124 34.5553 29.9874 36.3346 25.5449 35.1148C21.1024 33.8951 18.2249 30.1367 19.1174 26.7218C20.0099 23.3068 24.3349 21.5276 28.7774 22.7473C33.2199 23.9671 36.0982 27.7254 35.2049 31.1404ZM29.4232 30.2162C30.1166 30.0069 30.4199 29.6567 30.4982 29.3569C30.5666 29.0929 30.5066 28.7137 30.1507 28.2541L31.4549 27.1907C32.0191 27.9167 32.3574 28.8452 32.1082 29.7993C31.8224 30.891 30.8957 31.5529 29.8949 31.8553C28.8782 32.1628 27.6407 32.1568 26.4066 31.8177C25.1724 31.4786 24.0982 30.85 23.3674 30.0624C22.6482 29.2877 22.1691 28.2396 22.4541 27.148C22.7041 26.1939 23.4491 25.5635 24.2924 25.2236L24.9032 26.8123C24.3699 27.0276 24.1332 27.3257 24.0641 27.5896C23.9857 27.8886 24.0766 28.3481 24.5749 28.8854C25.0616 29.409 25.8507 29.8967 26.8382 30.1675C27.8249 30.4391 28.7466 30.4212 29.4232 30.2162Z" fill="#019F84"/>
</svg>
