<svg width="41" height="40" viewBox="0 0 41 40" fill="none" xmlns="http://www.w3.org/2000/svg">
<path d="M32.4587 25.2191C32.4587 31.5416 27.1047 36.6666 20.5003 36.6666C13.8959 36.6666 8.54199 31.5416 8.54199 25.2191C8.54199 15.2025 20.5003 3.33331 20.5003 3.33331C20.5003 3.33331 32.4587 15.2016 32.4587 25.2191Z" fill="#019F84"/>
<path fill-rule="evenodd" clip-rule="evenodd" d="M20.5003 35C26.1916 35 30.7503 30.5916 30.7503 25.2191C30.7503 20.755 28.0358 15.6475 25.0744 11.4675C23.6662 9.48885 22.1388 7.59357 20.5003 5.79165C20.3232 5.98609 20.1319 6.1997 19.9263 6.43248C18.5038 8.0415 17.1686 9.72214 15.9263 11.4675C12.9649 15.6475 10.2503 20.755 10.2503 25.2191C10.2503 30.5908 14.809 35 20.5003 35ZM19.3387 4.55831C16.3337 7.84081 8.54199 17.1333 8.54199 25.2191C8.54199 31.5416 13.8959 36.6666 20.5003 36.6666C27.1047 36.6666 32.4587 31.5416 32.4587 25.2191C32.4587 17.1333 24.667 7.84081 21.662 4.55831C20.9445 3.77498 20.5003 3.33331 20.5003 3.33331C20.5003 3.33331 20.0562 3.77498 19.3387 4.55831Z" fill="#019F84"/>
</svg>
