<svg width="41" height="41" viewBox="0 0 41 41" fill="none" xmlns="http://www.w3.org/2000/svg">
<path fill-rule="evenodd" clip-rule="evenodd" d="M35.8747 11.9583C35.8747 13.7706 35.1547 15.5087 33.8732 16.7902C32.5917 18.0717 30.8537 18.7917 29.0413 18.7917C27.229 18.7917 25.4909 18.0717 24.2094 16.7902C22.9279 15.5087 22.208 13.7706 22.208 11.9583C22.208 10.146 22.9279 8.40794 24.2094 7.12644C25.4909 5.84494 27.229 5.125 29.0413 5.125C30.8537 5.125 32.5917 5.84494 33.8732 7.12644C35.1547 8.40794 35.8747 10.146 35.8747 11.9583ZM32.6989 12.7997C32.648 13.0203 32.5117 13.2116 32.3198 13.3318C32.1279 13.4519 31.8962 13.4909 31.6756 13.4403L26.0244 12.142C25.8035 12.0912 25.6119 11.9548 25.4916 11.7628C25.3713 11.5707 25.3322 11.3387 25.3829 11.1178C25.4337 10.897 25.5701 10.7053 25.7622 10.585C25.9542 10.4647 26.1862 10.4256 26.4071 10.4764L32.0583 11.7755C32.1676 11.8007 32.2709 11.8472 32.3622 11.9123C32.4536 11.9774 32.5312 12.0598 32.5907 12.1549C32.6502 12.25 32.6903 12.3559 32.7089 12.4665C32.7275 12.5772 32.7241 12.6904 32.6989 12.7997Z" fill="#019F84"/>
<path d="M14.3311 7.89674C13.7785 6.58816 11.9283 6.45662 11.1861 7.6721L5.37432 17.1815C4.7038 18.2783 5.4529 19.6791 6.76063 19.7722L16.8962 20.4948C18.203 20.5888 19.1546 19.3093 18.6558 18.1288L14.3311 7.89674Z" fill="#019F84"/>
<path fill-rule="evenodd" clip-rule="evenodd" d="M30.2246 31.0575C31.4566 30.4831 32.4099 29.4428 32.8748 28.1656C33.3397 26.8883 33.2783 25.4787 32.7039 24.2468C32.1295 23.0149 31.0892 22.0616 29.812 21.5966C28.5347 21.1317 27.1251 21.1932 25.8932 21.7676L16.6032 26.0982C15.3712 26.6726 14.4178 27.7129 13.9528 28.9902C13.4878 30.2675 13.5492 31.6773 14.1236 32.9093C14.698 34.1413 15.7383 35.0947 17.0156 35.5598C18.2929 36.0248 19.7027 35.9633 20.9347 35.389L30.2246 31.0575ZM25.5763 31.3394L29.5029 29.5089C30.315 29.1203 30.9408 28.4269 31.2445 27.5794C31.5482 26.7319 31.5051 25.7988 31.1246 24.9829C30.7441 24.1669 30.057 23.5342 29.2125 23.2221C28.3681 22.91 27.4346 22.9438 26.6149 23.3162L22.6883 25.1466L25.5763 31.3394Z" fill="#019F84"/>
</svg>
