<svg width="40" height="40" viewBox="0 0 40 40" fill="none" xmlns="http://www.w3.org/2000/svg">
<path d="M20 35C28.2843 35 35 28.2843 35 20C35 11.7157 28.2843 5 20 5C11.7157 5 5 11.7157 5 20C5 28.2843 11.7157 35 20 35Z" stroke="#019F84" stroke-width="2.5"/>
<path d="M20 25C22.7614 25 25 22.7614 25 20C25 17.2386 22.7614 15 20 15C17.2386 15 15 17.2386 15 20C15 22.7614 17.2386 25 20 25Z" stroke="#019F84" stroke-width="2.5"/>
<path d="M25 20L25.65 19.2333C27.185 17.43 30.1333 18.6833 29.8967 21.04C29.65 23.5 32.8167 24.6983 34.2617 22.6933L35 21.6667M15 20.8333L14.9733 20.975C14.4367 23.835 10.3567 23.875 9.76333 21.0267L9.70333 20.7433C9.225 18.45 6.16333 17.9667 5 20" stroke="#019F84" stroke-width="2.5"/>
<path d="M15.8333 11.6667C16.2936 11.6667 16.6667 11.2936 16.6667 10.8333C16.6667 10.3731 16.2936 10 15.8333 10C15.3731 10 15 10.3731 15 10.8333C15 11.2936 15.3731 11.6667 15.8333 11.6667Z" stroke="#019F84" stroke-width="1.25"/>
<path d="M27.5003 15C27.9606 15 28.3337 14.6269 28.3337 14.1667C28.3337 13.7064 27.9606 13.3333 27.5003 13.3333C27.0401 13.3333 26.667 13.7064 26.667 14.1667C26.667 14.6269 27.0401 15 27.5003 15Z" stroke="#019F84" stroke-width="1.25"/>
<path d="M22.5003 10C22.9606 10 23.3337 9.62691 23.3337 9.16668C23.3337 8.70644 22.9606 8.33334 22.5003 8.33334C22.0401 8.33334 21.667 8.70644 21.667 9.16668C21.667 9.62691 22.0401 10 22.5003 10Z" stroke="#019F84" stroke-width="1.25"/>
</svg>
