<svg width="38" height="38" viewBox="0 0 38 38" fill="none" xmlns="http://www.w3.org/2000/svg">
<g clip-path="url(#clip0_242_470)">
<path d="M32.1534 5.84657C32.1534 4.29596 31.5375 2.80887 30.441 1.71242C29.3446 0.615976 27.8575 0 26.3069 0C24.7563 0 23.2691 0.615976 22.1727 1.71242C21.0763 2.80887 20.4603 4.29596 20.4603 5.84657C20.4684 7.39371 21.0873 8.87571 22.1866 9.96686L9.96686 22.1866C9.4271 21.6423 8.78541 21.2098 8.07844 20.9136C7.37147 20.6174 6.61308 20.4633 5.84657 20.4603C4.29596 20.4603 2.80887 21.0763 1.71242 22.1727C0.615976 23.2691 0 24.7563 0 26.3069C0 27.8575 0.615976 29.3446 1.71242 30.441C2.80887 31.5375 4.29596 32.1534 5.84657 32.1534C5.84657 33.704 6.46255 35.1911 7.55899 36.2876C8.65544 37.384 10.1425 38 11.6931 38C13.2437 38 14.7308 37.384 15.8273 36.2876C16.9237 35.1911 17.5397 33.704 17.5397 32.1534C17.5367 31.3869 17.3826 30.6285 17.0864 29.9216C16.7902 29.2146 16.3577 28.5729 15.8134 28.0331L28.0331 15.8134C29.1243 16.9127 30.6063 17.5316 32.1534 17.5397C33.704 17.5397 35.1911 16.9237 36.2876 15.8273C37.384 14.7308 38 13.2437 38 11.6931C38 10.1425 37.384 8.65544 36.2876 7.55899C35.1911 6.46255 33.704 5.84657 32.1534 5.84657Z" fill="#019F84"/>
</g>
<defs>
<clipPath id="clip0_242_470">
<rect width="38" height="38" fill="white"/>
</clipPath>
</defs>
</svg>
